<svg width="180" height="36" viewBox="0,0,180,36" xmlns="http://www.w3.org/2000/svg"><svg width="16" height="16" viewBox="0,0,16,16" x="0" y="0"><svg ti:v="1" width="16" height="16" viewBox="0,0,16,16" xmlns="http://www.w3.org/2000/svg" xmlns:ti="urn:schemas-jetbrains-com:tisvg"><g><path d="M0,0L16,0L16,16L0,16Z" fill="#FFFFFF" opacity="0" /><linearGradient id="F100" x1="0.5" y1="0.00164285714285714" x2="0.5" y2="0.995642857142857"><stop offset="0" stop-color="#C28C21" /><stop offset="1" stop-color="#634933" /></linearGradient><path d="M1,15L1,3L7.586,3L9.586,1L16,1L16,15L1,15Z" fill="url(#F100)" /><linearGradient id="F200" x1="0.5" y1="0.00166666666666668" x2="0.5" y2="0.995666666666667"><stop offset="0" stop-color="#FFE9BD" /><stop offset="1" stop-color="#D4A24C" /></linearGradient><path d="M15,14L15,2L10,2L8,4L2,4L2,14L15,14Z" fill="url(#F200)" /><linearGradient id="F300" x1="0.5" y1="0.00171428571428567" x2="0.5" y2="0.995714285714286"><stop offset="0" stop-color="#B88143" /><stop offset="1" stop-color="#8A4717" /></linearGradient><path d="M3,6L14,6L14,13L3,13Z" fill="url(#F300)" /><linearGradient id="F400" x1="0.5" y1="0" x2="0.5" y2="1"><stop offset="0" stop-color="#663887" /><stop offset="1" stop-color="#260A3B" /></linearGradient><path fill-rule="evenodd" d="M8.646,6L4.696,8.863L2.06,7.338L0,8.68L0,13.32L2.06,14.662L4.696,13.137L8.646,16L9.269,16L12,14.206L12,7.794L9.269,6L8.646,6Z" fill="url(#F400)" /><linearGradient id="F500" x1="0.5" y1="0" x2="0.5" y2="1"><stop offset="0" stop-color="#EBCFFF" /><stop offset="1" stop-color="#C982FF" /></linearGradient><path fill-rule="evenodd" d="M8.97,7L4.757,10.054L2.091,8.511L1,9.222L1,12.778L2.091,13.489L4.757,11.946L8.97,15L11,13.667L11,8.333L8.97,7Z" fill="url(#F500)" /><linearGradient id="F600" x1="0.499927315016718" y1="0" x2="0.499927315016718" y2="1"><stop offset="0" stop-color="#663887" /><stop offset="1" stop-color="#260A3B" /></linearGradient><path fill-rule="evenodd" d="M2.091,11.987L2.091,10.013L3.452,11ZM2.091,11.987M8.9699999999999989,12.492L8.9699999999999989,9.508L6.392,11ZM8.9699999999999989,12.492" fill="url(#F600)" /></g></svg></svg><svg width="16" height="16" viewBox="0,0,16,16" x="18" y="0"><svg ti:v="1" width="16" height="16" viewBox="0,0,16,16" xmlns="http://www.w3.org/2000/svg" xmlns:ti="urn:schemas-jetbrains-com:tisvg"><g><path fill-rule="evenodd" d="M0,0L16,0L16,16L0,16Z" fill="#FFFFFF" opacity="0" /><linearGradient id="F101" x1="0.499999" y1="0.01193" x2="0.499999" y2="1"><stop offset="0" stop-color="#566980" /><stop offset="1" stop-color="#2D3641" /></linearGradient><path fill-rule="evenodd" d="M15,14L1,14L1,1L15,1L15,14Z" fill="url(#F101)" /><linearGradient id="F201" x1="0.0118923" y1="0.500003" x2="1.00007" y2="0.500003"><stop offset="0" stop-color="#FFFFFF" /><stop offset="1" stop-color="#A7BADB" /></linearGradient><path fill-rule="evenodd" d="M2,13L14,13L14,5L2,5L2,13Z" fill="url(#F201)" /><linearGradient id="F301" x1="0.499999" y1="0.0103804" x2="0.499999" y2="1.00022"><stop offset="0" stop-color="#FFFFFF" /><stop offset="1" stop-color="#A7BADB" /></linearGradient><path fill-rule="evenodd" d="M13,12L3,12L3,5L13,5L13,12Z" fill="url(#F301)" /><linearGradient id="F401" x1="-6.35783E-07" y1="0.50001" x2="1" y2="0.50001"><stop offset="0" stop-color="#6D97E6" /><stop offset="1" stop-color="#2F62C7" /></linearGradient><path fill-rule="evenodd" d="M14,5L2,5L2,2L14,2L14,5Z" fill="url(#F401)" /></g></svg></svg><svg width="16" height="16" viewBox="0,0,16,16" x="36" y="0"><svg ti:v="1" width="16" height="16" viewBox="0,0,16,16" xmlns="http://www.w3.org/2000/svg" xmlns:ti="urn:schemas-jetbrains-com:tisvg"><g><path fill-rule="evenodd" d="M0,0L16,0L16,15.999999046325684L0,15.999999046325684Z" fill="#FFFFFF" opacity="0" /><linearGradient id="F102" x1="0.499998" y1="0.0185669" x2="0.499998" y2="1.02011"><stop offset="0" stop-color="#5572A1" /><stop offset="1" stop-color="#405980" /></linearGradient><path fill-rule="evenodd" d="M0,8.4999998641967771C0,9.8808998641967776,1.1189999999999998,10.999999864196777,2.5,10.999999864196777L2.5,10.999999864196777C3.3149999999999977,10.999999864196777,4.0319999999999965,10.602999864196779,4.4890000000000043,9.9999998641967771L5,9.9999998641967771L5,6.9999998641967771L4.4890000000000043,6.9999998641967771C4.0319999999999965,6.3968998641967758,3.3149999999999977,5.9999998641967771,2.5,5.9999998641967771L2.5,5.9999998641967771C1.1189999999999998,5.9999998641967771,0,7.1199998641967781,0,8.4999998641967771Z" fill="url(#F102)" /><linearGradient id="F202" x1="0.5" y1="0.0185615" x2="0.5" y2="1.0201"><stop offset="0" stop-color="#566980" /><stop offset="1" stop-color="#2C3641" /></linearGradient><path fill-rule="evenodd" d="M8,3.9999998641967771C6.3449999999999989,3.9999998641967771,5,5.3459998641967772,5,6.9999998641967771L5,9.9999998641967771C5,11.654999864196778,6.3449999999999989,12.999999864196777,8,12.999999864196777L13,12.999999864196777C14.653999999999996,12.999999864196777,16,11.654999864196778,16,9.9999998641967771L16,6.9999998641967771C16,5.3459998641967772,14.653999999999996,3.9999998641967771,13,3.9999998641967771L8,3.9999998641967771Z" fill="url(#F202)" /><linearGradient id="F302" x1="0.5" y1="0.0101929" x2="0.5" y2="1.00085"><stop offset="0" stop-color="#FFFFFF" /><stop offset="1" stop-color="#A7BBDB" /></linearGradient><path fill-rule="evenodd" d="M8,4.9999998641967771C6.9000000000000057,4.9999998641967771,6,5.8999998641967775,6,6.9999998641967771L6,7.9999998641967771L6,8.9999998641967771L6,9.9999998641967771C6,11.098999864196777,6.9000000000000057,11.999999864196777,8,11.999999864196777L13,11.999999864196777C14.099999999999994,11.999999864196777,15,11.098999864196777,15,9.9999998641967771L15,6.9999998641967771C15,5.8999998641967775,14.099999999999994,4.9999998641967771,13,4.9999998641967771L8,4.9999998641967771Z" fill="url(#F302)" /><linearGradient id="F402" x1="0.5" y1="1.2207E-05" x2="0.5" y2="1.06713"><stop offset="0" stop-color="#A7BBDB" /><stop offset="1" stop-color="#FFFFFF" /></linearGradient><path fill-rule="evenodd" d="M8,5.9999998641967771C7.4489999999999981,5.9999998641967771,7,6.4479998641967775,7,6.9999998641967771L7,9.9999998641967771C7,10.551999864196777,7.4489999999999981,10.999999864196777,8,10.999999864196777L13,10.999999864196777C13.552000000000007,10.999999864196777,14,10.551999864196777,14,9.9999998641967771L14,6.9999998641967771C14,6.4479998641967775,13.552000000000007,5.9999998641967771,13,5.9999998641967771L8,5.9999998641967771Z" fill="url(#F402)" /><path fill-rule="evenodd" d="M6,7.9999998641967771L3.9080000000000013,7.9999998641967771C3.7019999999999982,7.4189998641967776,3.152000000000001,6.9999998641967771,2.5,6.9999998641967771C1.6710000000000065,6.9999998641967771,1,7.6719998641967777,1,8.4999998641967771C1,9.3279998641967765,1.6710000000000065,9.9999998641967771,2.5,9.9999998641967771C3.152000000000001,9.9999998641967771,3.7019999999999982,9.5809998641967766,3.9080000000000013,8.9999998641967771L6,8.9999998641967771L6,7.9999998641967771Z" fill="#7ED5FF" /><path fill-rule="evenodd" d="M3,8.4999998641967771C3,8.7759998641967769,2.7759999999999962,8.9999998641967771,2.5,8.9999998641967771C2.2240000000000038,8.9999998641967771,2,8.7759998641967769,2,8.4999998641967771C2,8.2239998641967773,2.2240000000000038,7.9999998641967771,2.5,7.9999998641967771C2.7759999999999962,7.9999998641967771,3,8.2239998641967773,3,8.4999998641967771Z" fill="#00FFFF" /></g></svg></svg><svg width="16" height="16" viewBox="0,0,16,16" x="54" y="0"><svg ti:v="1" width="16" height="16" viewBox="0,0,16,16" xmlns="http://www.w3.org/2000/svg" xmlns:ti="urn:schemas-jetbrains-com:tisvg"><g><path fill-rule="evenodd" d="M0,0L16,0L16,16L0,16Z" fill="#FFFFFF" opacity="0" /><linearGradient id="F103" x1="0.499999" y1="0" x2="0.499999" y2="1"><stop offset="0" stop-color="#E9FF5E" /><stop offset="1" stop-color="#C1DD00" /></linearGradient><path fill-rule="evenodd" d="M6.8379999999999939,1L6.6839999999999975,1.0509999999999877C5.4849999999999994,1.4499999999999886,3.284000000000006,2.9379999999999882,3.0250000000000057,5.7930000000000064L2,6.4560000000000173L2,8.5439999999999827L3.0250000000000057,9.2069999999999936C3.284000000000006,12.062000000000012,5.4849999999999994,13.550000000000011,6.6839999999999975,13.949000000000012L6.8379999999999939,14L9.1620000000000061,14L9.3160000000000025,13.949000000000012C10.513999999999996,13.550000000000011,12.716999999999999,12.062000000000012,12.974999999999994,9.2069999999999936L14,8.5439999999999827L14,6.4560000000000173L12.974999999999994,5.7930000000000064C12.716999999999999,2.9379999999999882,10.513999999999996,1.4499999999999886,9.3160000000000025,1.0509999999999877L9.1620000000000061,1L6.8379999999999939,1Z" fill="url(#F103)" /><path fill-rule="evenodd" d="M11.5,7L11.5,8L10.5,9C10.5,11,9,12,9,12L9,13C9,13,12,12,12,8.646000000000015L13,8L13,7L12,6.353999999999985C12,3,9,2,9,2L9,3C9,3,10.5,4,10.5,6M5.5,6C5.5,4,7,3,7,3L7,2C7,2,4,3,4,6.353999999999985L3,7L3,8L4,8.646000000000015C4,12,7,13,7,13L7,12C7,12,5.5,11,5.5,9L4.5,8L4.5,7L5.5,6Z" fill="#495E00" /></g></svg></svg><svg width="16" height="16" viewBox="0,0,16,16" x="72" y="0"><svg ti:v="1" width="16" height="16" viewBox="0,0,16,16" xmlns="http://www.w3.org/2000/svg" xmlns:ti="urn:schemas-jetbrains-com:tisvg"><g><path fill-rule="evenodd" d="M0,0L16,0L16,16L0,16Z" fill="#FFFFFF" opacity="0" /><path fill-rule="evenodd" d="M7,13L7,8L3.5859999999999985,8L6.5859999999999985,5L14.414000000000001,5L11.414000000000001,8L10,8L10,10L14.414000000000001,10L11.414000000000001,13L7,13Z" fill="#324A63" /><linearGradient id="F204" x1="0.499996" y1="0" x2="0.499996" y2="1.00001"><stop offset="0" stop-color="#1C568E" /><stop offset="1" stop-color="#000E4F" /></linearGradient><path fill-rule="evenodd" d="M16,12.414000000000001L16,11.585999999999999L13,8.5859999999999985L8.5859999999999985,13L11.585999999999999,16L12.414000000000001,16L16,12.414000000000001Z" fill="url(#F204)" /><linearGradient id="F304" x1="0.499996" y1="0" x2="0.499996" y2="1.00002"><stop offset="0" stop-color="#720872" /><stop offset="1" stop-color="#540A54" /></linearGradient><path fill-rule="evenodd" d="M16,6.5859999999999985L13,3.5859999999999985L8.5859999999999985,8L12,11.414000000000001L16,7.4140000000000015L16,6.5859999999999985Z" fill="url(#F304)" /><linearGradient id="F404" x1="0.5" y1="1.2207E-05" x2="0.5" y2="1.00001"><stop offset="0" stop-color="#EBACF6" /><stop offset="1" stop-color="#DA6EDB" /></linearGradient><path fill-rule="evenodd" d="M13,5L15,7L12,10L10,8L13,5Z" fill="url(#F404)" /><linearGradient id="F504" x1="0.5" y1="1.2207E-05" x2="0.5" y2="1.00001"><stop offset="0" stop-color="#9CCDFD" /><stop offset="1" stop-color="#5D9AD8" /></linearGradient><path fill-rule="evenodd" d="M13,10L15,12L12,15L10,13L13,10Z" fill="url(#F504)" /><linearGradient id="F604" x1="0.500002" y1="5.86087E-06" x2="0.500002" y2="1.00001"><stop offset="0" stop-color="#6E4D00" /><stop offset="1" stop-color="#422D00" /></linearGradient><path fill-rule="evenodd" d="M0,5.5859999999999985L0,6.4140000000000015L4,10.414000000000001L10.414000000000001,4L6.4140000000000015,0L5.5859999999999985,0L0,5.5859999999999985Z" fill="url(#F604)" /><linearGradient id="F704" x1="0.499999" y1="7.62939E-06" x2="0.499999" y2="1.00001"><stop offset="0" stop-color="#F6DF85" /><stop offset="1" stop-color="#EDB62A" /></linearGradient><path fill-rule="evenodd" d="M4,9L1,6L6,1L9,4L4,9Z" fill="url(#F704)" /><path fill-rule="evenodd" d="M11,7L11,6L7,6L7,7L8,7L8,12L11,12L11,11L9,11L9,7L11,7Z" fill="#FFFFFF" /></g></svg></svg><svg width="16" height="16" viewBox="0,0,16,16" x="90" y="0"><svg ti:v="1" width="16" height="16" viewBox="0,0,16,16" xmlns="http://www.w3.org/2000/svg" xmlns:ti="urn:schemas-jetbrains-com:tisvg"><g><path fill-rule="evenodd" d="M0,0L16,0L16,16L0,16Z" fill="#FFFFFF" opacity="0" /><path fill-rule="evenodd" d="M7,13L7,8L3.5859999999999985,8L6.5859999999999985,5L14.414000000000001,5L11.414000000000001,8L10,8L10,10L14.414000000000001,10L11.414000000000001,13L7,13Z" fill="#324A63" /><linearGradient id="F205" x1="0.499996" y1="0" x2="0.499996" y2="1.00001"><stop offset="0" stop-color="#1C568E" /><stop offset="1" stop-color="#000E4F" /></linearGradient><path fill-rule="evenodd" d="M16,12.414000000000001L16,11.585999999999999L13,8.5859999999999985L8.5859999999999985,13L11.585999999999999,16L12.414000000000001,16L16,12.414000000000001Z" fill="url(#F205)" /><linearGradient id="F305" x1="0.499996" y1="0" x2="0.499996" y2="1.00002"><stop offset="0" stop-color="#720872" /><stop offset="1" stop-color="#540A54" /></linearGradient><path fill-rule="evenodd" d="M16,6.5859999999999985L13,3.5859999999999985L8.5859999999999985,8L12,11.414000000000001L16,7.4140000000000015L16,6.5859999999999985Z" fill="url(#F305)" /><linearGradient id="F405" x1="0.5" y1="1.2207E-05" x2="0.5" y2="1.00001"><stop offset="0" stop-color="#EBACF6" /><stop offset="1" stop-color="#DA6EDB" /></linearGradient><path fill-rule="evenodd" d="M13,5L15,7L12,10L10,8L13,5Z" fill="url(#F405)" /><linearGradient id="F505" x1="0.5" y1="1.2207E-05" x2="0.5" y2="1.00001"><stop offset="0" stop-color="#9CCDFD" /><stop offset="1" stop-color="#5D9AD8" /></linearGradient><path fill-rule="evenodd" d="M13,10L15,12L12,15L10,13L13,10Z" fill="url(#F505)" /><linearGradient id="F605" x1="0.500002" y1="5.86087E-06" x2="0.500002" y2="1.00001"><stop offset="0" stop-color="#6E4D00" /><stop offset="1" stop-color="#422D00" /></linearGradient><path fill-rule="evenodd" d="M0,5.5859999999999985L0,6.4140000000000015L4,10.414000000000001L10.414000000000001,4L6.4140000000000015,0L5.5859999999999985,0L0,5.5859999999999985Z" fill="url(#F605)" /><linearGradient id="F705" x1="0.499999" y1="7.62939E-06" x2="0.499999" y2="1.00001"><stop offset="0" stop-color="#F6DF85" /><stop offset="1" stop-color="#EDB62A" /></linearGradient><path fill-rule="evenodd" d="M4,9L1,6L6,1L9,4L4,9Z" fill="url(#F705)" /><path fill-rule="evenodd" d="M11,7L11,6L7,6L7,7L8,7L8,12L11,12L11,11L9,11L9,7L11,7Z" fill="#FFFFFF" /></g></svg><svg ti:v="1" width="16" height="16" viewBox="0,0,16,16" xmlns="http://www.w3.org/2000/svg" xmlns:ti="urn:schemas-jetbrains-com:tisvg"><g><path fill-rule="evenodd" d="M0,0L16,0L16,16L0,16Z" fill="#FFFFFF" opacity="0" /><linearGradient id="F115" x1="0.5" y1="1.01725E-05" x2="0.5" y2="1.00001"><stop offset="0" stop-color="#856000" /><stop offset="1" stop-color="#562800" /></linearGradient><path fill-rule="evenodd" d="M8,16L0,16L0,10L8,10L8,16Z" fill="url(#F115)" /><linearGradient id="F215" x1="0.5" y1="1.52588E-05" x2="0.5" y2="1.00002"><stop offset="0" stop-color="#FFEF8C" /><stop offset="1" stop-color="#EFDB72" /></linearGradient><path fill-rule="evenodd" d="M7,11L1,11L1,15L7,15L7,11Z" fill="url(#F215)" /><linearGradient id="F315" x1="0.5" y1="2.03451E-05" x2="0.5" y2="1.00002"><stop offset="0" stop-color="#856000" /><stop offset="1" stop-color="#562800" /></linearGradient><path fill-rule="evenodd" d="M1,11L4,13L7,11L7,12L4,14L1,12L1,11Z" fill="url(#F315)" /></g></svg></svg><svg width="16" height="16" viewBox="0,0,16,16" x="108" y="0"><svg ti:v="1" width="16" height="16" viewBox="0,0,16,16" xmlns="http://www.w3.org/2000/svg" xmlns:ti="urn:schemas-jetbrains-com:tisvg"><g><path fill-rule="evenodd" d="M0,0L16,0L16,16L0,16Z" fill="#FFFFFF" opacity="0" /><linearGradient id="F106" x1="0.5" y1="5.54865E-06" x2="0.5" y2="1.00001"><stop offset="0" stop-color="#800080" /><stop offset="1" stop-color="#5B005B" /></linearGradient><path fill-rule="evenodd" d="M5,12.25L5,6.7510000000000048L10,4L15,6.7510000000000048L15,12.25L10,15L5,12.25Z" fill="url(#F106)" /><linearGradient id="F206" x1="0.0278301" y1="0.500025" x2="1.01539" y2="0.500025"><stop offset="0" stop-color="#FD59FF" /><stop offset="1" stop-color="#FF9CFF" /></linearGradient><path fill-rule="evenodd" d="M6,7.8009999999999877L6,11.658999999999992L10,13.858000000000004L10,10L6,7.8009999999999877Z" fill="url(#F206)" /><linearGradient id="F306" x1="0.027832" y1="0.500025" x2="1.01539" y2="0.500025"><stop offset="0" stop-color="#FD33FF" /><stop offset="1" stop-color="#FFA3FF" /></linearGradient><path fill-rule="evenodd" d="M14,7.8009999999999877L10,10L10,13.858000000000004L14,11.658999999999992L14,7.8009999999999877Z" fill="url(#F306)" /><path fill-rule="evenodd" d="M13.378900000000002,7L9.9998999999999967,8.8580000000000041L6.620900000000006,7L5.9998999999999967,7.342000000000013L5.9998999999999967,7.8009999999999877L9.9998999999999967,10L13.999899999999997,7.8009999999999877L13.999899999999997,7.342000000000013L13.378900000000002,7Z" fill="#FFE6FF" /><linearGradient id="F506" x1="0.5" y1="0.0277584" x2="0.5" y2="1.01553"><stop offset="0" stop-color="#FD54FF" /><stop offset="1" stop-color="#FFBFFF" /></linearGradient><path fill-rule="evenodd" d="M10,8.8580000000000041L13.379000000000005,7L10,5.1419999999999959L6.6209999999999951,7L10,8.8580000000000041Z" fill="url(#F506)" /><path fill-rule="evenodd" d="M5,1L5,0L2,0L2,1L0,1L0,8L2,8L2,9L5,9L5,8L7,8L7,1L5,1Z" fill="#877000" /><linearGradient id="F706" x1="0.499998" y1="-0.0178484" x2="0.499998" y2="1.03587"><stop offset="0" stop-color="#FFFDDD" /><stop offset="1" stop-color="#FFF45E" /></linearGradient><path fill-rule="evenodd" d="M6,6L5,6L5,7L6,7M2,6L1,6L1,7L2,7M6,2L5,2L5,3L6,3M2,2L1,2L1,3L2,3M6,4L6,5L5,5L5,6L4,6L4,8L3,8L3,6L2,6L2,5L1,5L1,4L2,4L2,3L3,3L3,1L4,1L4,3L5,3L5,4L6,4Z" fill="url(#F706)" /><path fill-rule="evenodd" d="M3,5L4,5L4,4L3,4L3,5Z" fill="#877000" /></g></svg></svg><svg width="16" height="16" viewBox="0,0,16,16" x="126" y="0"><svg ti:v="1" width="16" height="16" viewBox="0,0,16,16" xmlns="http://www.w3.org/2000/svg" xmlns:ti="urn:schemas-jetbrains-com:tisvg"><g><path fill-rule="evenodd" d="M0,0L16,0L16,16L0,16Z" fill="#FFFFFF" opacity="0" /><linearGradient id="F107" x1="0.499999" y1="0.01193" x2="0.499999" y2="1"><stop offset="0" stop-color="#566980" /><stop offset="1" stop-color="#2D3641" /></linearGradient><path fill-rule="evenodd" d="M15,14L1,14L1,1L15,1L15,14Z" fill="url(#F107)" /><linearGradient id="F207" x1="0.0118923" y1="0.500003" x2="1.00007" y2="0.500003"><stop offset="0" stop-color="#FFFFFF" /><stop offset="1" stop-color="#A7BADB" /></linearGradient><path fill-rule="evenodd" d="M2,13L14,13L14,5L2,5L2,13Z" fill="url(#F207)" /><linearGradient id="F307" x1="0.499999" y1="0.0103804" x2="0.499999" y2="1.00022"><stop offset="0" stop-color="#FFFFFF" /><stop offset="1" stop-color="#A7BADB" /></linearGradient><path fill-rule="evenodd" d="M13,12L3,12L3,5L13,5L13,12Z" fill="url(#F307)" /><linearGradient id="F407" x1="-6.35783E-07" y1="0.50001" x2="1" y2="0.50001"><stop offset="0" stop-color="#6D97E6" /><stop offset="1" stop-color="#2F62C7" /></linearGradient><path fill-rule="evenodd" d="M14,5L2,5L2,2L14,2L14,5Z" fill="url(#F407)" /></g></svg></svg><svg width="16" height="16" viewBox="0,0,16,16" x="144" y="0"><svg ti:v="1" width="16" height="16" viewBox="0,0,16,16" xmlns="http://www.w3.org/2000/svg" xmlns:ti="urn:schemas-jetbrains-com:tisvg"><g><path fill-rule="evenodd" d="M0,0L16,0L16,16L0,16Z" fill="#FFFFFF" opacity="0" /><linearGradient id="F108" x1="0.499999" y1="4.69501E-06" x2="0.499999" y2="1"><stop offset="0" stop-color="#800080" /><stop offset="1" stop-color="#5B005B" /></linearGradient><path fill-rule="evenodd" d="M2,4.160000000000025L2,10.841000000000008L7.7420000000000044,14L8.2579999999999956,14L14,10.841000000000008L14,4.160000000000025L8.2579999999999956,1L7.7420000000000044,1L2,4.160000000000025Z" fill="url(#F108)" /><linearGradient id="F208" x1="0.0278305" y1="0.5" x2="1.01539" y2="0.5"><stop offset="0" stop-color="#FD59FF" /><stop offset="1" stop-color="#FF9CFF" /></linearGradient><path fill-rule="evenodd" d="M3,5.25L3,10.25L8,13L8,8L3,5.25Z" fill="url(#F208)" /><linearGradient id="F308" x1="0.0278305" y1="0.5" x2="1.01539" y2="0.5"><stop offset="0" stop-color="#FD33FF" /><stop offset="1" stop-color="#FFA3FF" /></linearGradient><path fill-rule="evenodd" d="M13,5.25L8,8L8,13L13,10.25L13,5.25Z" fill="url(#F308)" /><path fill-rule="evenodd" d="M12.544899999999998,4.5L7.9998999999999967,7L3.454899999999995,4.5L2.9998999999999967,4.7509999999999764L2.9998999999999967,5.25L7.9998999999999967,8L12.999899999999997,5.25L12.999899999999997,4.7509999999999764L12.544899999999998,4.5Z" fill="#FFFFFF" /><linearGradient id="F508" x1="0.499999" y1="0.0277466" x2="0.499999" y2="1.01531"><stop offset="0" stop-color="#FD54FF" /><stop offset="1" stop-color="#FFBFFF" /></linearGradient><path fill-rule="evenodd" d="M8,7L12.545000000000002,4.5L8,2L3.4549999999999983,4.5L8,7Z" fill="url(#F508)" /></g></svg><svg ti:v="1" width="16" height="16" viewBox="0,0,16,16" xmlns="http://www.w3.org/2000/svg" xmlns:ti="urn:schemas-jetbrains-com:tisvg"><g><path fill-rule="evenodd" d="M0,0L16,0L16,16L0,16Z" fill="#FFFFFF" opacity="0" /><linearGradient id="F118" x1="0" y1="0.500006" x2="1" y2="0.500006"><stop offset="0" stop-color="#6D9C00" /><stop offset="1" stop-color="#004466" /></linearGradient><path fill-rule="evenodd" d="M0,9C0,10.181000000000012,0.804000000000002,11.228000000000009,2,11.712999999999994L2,16L4.4139999999999873,16L6,14.413999999999987L6,12L5,12L5,11.712999999999994C6.1970000000000027,11.228000000000009,7,10.181000000000012,7,9L7,9C7,7.3460000000000036,5.4300000000000068,6,3.5,6L3.5,6C1.5699999999999932,6,0,7.3460000000000036,0,9Z" fill="url(#F118)" /><linearGradient id="F218" x1="0.5" y1="7.62939E-06" x2="0.5" y2="1.00001"><stop offset="0" stop-color="#DFFDAC" /><stop offset="1" stop-color="#B1F767" /></linearGradient><path fill-rule="evenodd" d="M1,9C1,9.96799999999999,1.8590000000000089,10.774000000000001,3,10.960000000000008L3,15L4,15L5,14L5,13L4,13L4,10.960000000000008C5.1409999999999911,10.774000000000001,6,9.96799999999999,6,9L6,9C6,7.89500000000001,4.881,7,3.5,7L3.5,7C2.1189999999999998,7,1,7.89500000000001,1,9Z" fill="url(#F218)" /><linearGradient id="F318" x1="0" y1="0.500031" x2="1" y2="0.500031"><stop offset="0" stop-color="#008E9C" /><stop offset="1" stop-color="#004466" /></linearGradient><path fill-rule="evenodd" d="M2,9C2,9.5529999999999973,2.671999999999997,10,3.5,10L3.5,10C4.328000000000003,10,5,9.5529999999999973,5,9L5,9C5,8.4480000000000075,4.328000000000003,8,3.5,8L3.5,8C2.671999999999997,8,2,8.4480000000000075,2,9Z" fill="url(#F318)" /></g></svg></svg><svg width="16" height="16" viewBox="0,0,16,16" x="162" y="0"><svg ti:v="1" width="16" height="16" viewBox="0,0,16,16" xmlns="http://www.w3.org/2000/svg" xmlns:ti="urn:schemas-jetbrains-com:tisvg"><g><path fill-rule="evenodd" d="M0,0L16,0L16,16L0,16Z" fill="#FFFFFF" opacity="0" /><linearGradient id="F109" x1="-6.35783E-07" y1="0.5" x2="1" y2="0.5"><stop offset="0" stop-color="#5D5E62" /><stop offset="1" stop-color="#282B2D" /></linearGradient><path fill-rule="evenodd" d="M2,15L14,15L14,4L2,4L2,15Z" fill="url(#F109)" /><path fill-rule="evenodd" d="M13,4L3,4L3,14L13,14L13,4Z" fill="#FFFFFF" /><linearGradient id="F309" x1="-9.53674E-07" y1="0.5" x2="1" y2="0.5"><stop offset="0" stop-color="#F2F9FF" /><stop offset="1" stop-color="#CCEBFF" /></linearGradient><path fill-rule="evenodd" d="M4,13L12,13L12,4L4,4L4,13Z" fill="url(#F309)" /><linearGradient id="F409" x1="-1.27157E-06" y1="0.5" x2="1" y2="0.5"><stop offset="0" stop-color="#006293" /><stop offset="1" stop-color="#00214F" /></linearGradient><path fill-rule="evenodd" d="M7,10L5,10L5,11L7,11M11,10L8,10L8,11L11,11M7,6L5,6L5,7L7,7M11,7L8,7L8,6L11,6M7,8L5,8L5,9L7,9M11,9L8,9L8,8L11,8L11,9Z" fill="url(#F409)" /><linearGradient id="F509" x1="0.499999" y1="0" x2="0.499999" y2="1"><stop offset="0" stop-color="#003D62" /><stop offset="1" stop-color="#00144F" /></linearGradient><path fill-rule="evenodd" d="M2,1L2,4L3,4L14,4L14,1L2,1Z" fill="url(#F509)" /><linearGradient id="F609" x1="-7.62939E-07" y1="0.5" x2="0.993293" y2="0.5"><stop offset="0" stop-color="#33D6FF" /><stop offset="1" stop-color="#009CFF" /></linearGradient><path fill-rule="evenodd" d="M3,4L13,4L13,2L3,2L3,4Z" fill="url(#F609)" /></g></svg></svg><svg width="16" height="16" viewBox="0,0,16,16" x="0" y="18"><svg ti:v="1" width="16" height="16" viewBox="0,0,16,16" xmlns="http://www.w3.org/2000/svg" xmlns:ti="urn:schemas-jetbrains-com:tisvg"><g><path fill-rule="evenodd" d="M0,0L16,0L16,16L0,16Z" fill="#FFFFFF" opacity="0" /><linearGradient id="F1010" x1="0.499999" y1="2.77433E-06" x2="0.499999" y2="1"><stop offset="0" stop-color="#800080" /><stop offset="1" stop-color="#5B005B" /></linearGradient><path fill-rule="evenodd" d="M1,12.25L1,6.7510000000000048L6,4L11,6.7510000000000048L11,12.25L6,15L1,12.25Z" fill="url(#F1010)" /><linearGradient id="F2010" x1="0.0278301" y1="0.50002" x2="1.01539" y2="0.50002"><stop offset="0" stop-color="#FD58FF" /><stop offset="1" stop-color="#FF9CFF" /></linearGradient><path fill-rule="evenodd" d="M2,7.8010000000000019L2,11.659000000000006L6,13.858000000000004L6,10L2,7.8010000000000019Z" fill="url(#F2010)" /><linearGradient id="F3010" x1="0.0278292" y1="0.50002" x2="1.01539" y2="0.50002"><stop offset="0" stop-color="#FD32FF" /><stop offset="1" stop-color="#FFA3FF" /></linearGradient><path fill-rule="evenodd" d="M10,7.8010000000000019L6,10L6,13.858000000000004L10,11.659000000000006L10,7.8010000000000019Z" fill="url(#F3010)" /><path fill-rule="evenodd" d="M9.3789000000000016,7L5.9998999999999967,8.8580000000000041L2.6208999999999989,7L1.9998999999999967,7.3419999999999987L1.9998999999999967,7.8010000000000019L5.9998999999999967,10L9.9998999999999967,7.8010000000000019L9.9998999999999967,7.3419999999999987L9.3789000000000016,7Z" fill="#FFE6FF" /><linearGradient id="F5010" x1="0.499999" y1="0.0277582" x2="0.499999" y2="1.01554"><stop offset="0" stop-color="#FD53FF" /><stop offset="1" stop-color="#FFBFFF" /></linearGradient><path fill-rule="evenodd" d="M6,8.8580000000000041L9.3790000000000049,7L6,5.1419999999999959L2.6210000000000022,7L6,8.8580000000000041Z" fill="url(#F5010)" /><linearGradient id="F6010" x1="0.499999" y1="0.0220245" x2="0.499999" y2="1.00002"><stop offset="0" stop-color="#006D08" /><stop offset="1" stop-color="#004C1D" /></linearGradient><path fill-rule="evenodd" d="M16,10L8,10L8,0L16,0L16,10Z" fill="url(#F6010)" /><linearGradient id="F7010" x1="0.499999" y1="-0.0129356" x2="0.499999" y2="0.987064"><stop offset="0" stop-color="#C7FFB8" /><stop offset="1" stop-color="#00E82C" /></linearGradient><path fill-rule="evenodd" d="M13,1L13,2L14,2L14,8L13,8L13,9L15,9L15,1M10,2L10,8L11,8L11,9L9,9L9,1L11,1L11,2L10,2Z" fill="url(#F7010)" /></g></svg></svg><svg width="16" height="16" viewBox="0,0,16,16" x="18" y="18"><svg ti:v="1" width="16" height="16" viewBox="0,0,16,16" xmlns="http://www.w3.org/2000/svg" xmlns:ti="urn:schemas-jetbrains-com:tisvg"><g><path fill-rule="evenodd" d="M0,0L16,0L16,16L0,16Z" fill="#FFFFFF" opacity="0" /><linearGradient id="F1011" x1="0.499999" y1="4.69501E-06" x2="0.499999" y2="1"><stop offset="0" stop-color="#800080" /><stop offset="1" stop-color="#5B005B" /></linearGradient><path fill-rule="evenodd" d="M2,4.160000000000025L2,10.841000000000008L7.7420000000000044,14L8.2579999999999956,14L14,10.841000000000008L14,4.160000000000025L8.2579999999999956,1L7.7420000000000044,1L2,4.160000000000025Z" fill="url(#F1011)" /><linearGradient id="F2011" x1="0.0278305" y1="0.5" x2="1.01539" y2="0.5"><stop offset="0" stop-color="#FD59FF" /><stop offset="1" stop-color="#FF9CFF" /></linearGradient><path fill-rule="evenodd" d="M3,5.25L3,10.25L8,13L8,8L3,5.25Z" fill="url(#F2011)" /><linearGradient id="F3011" x1="0.0278305" y1="0.5" x2="1.01539" y2="0.5"><stop offset="0" stop-color="#FD33FF" /><stop offset="1" stop-color="#FFA3FF" /></linearGradient><path fill-rule="evenodd" d="M13,5.25L8,8L8,13L13,10.25L13,5.25Z" fill="url(#F3011)" /><path fill-rule="evenodd" d="M12.544899999999998,4.5L7.9998999999999967,7L3.454899999999995,4.5L2.9998999999999967,4.7509999999999764L2.9998999999999967,5.25L7.9998999999999967,8L12.999899999999997,5.25L12.999899999999997,4.7509999999999764L12.544899999999998,4.5Z" fill="#FFFFFF" /><linearGradient id="F5011" x1="0.499999" y1="0.0277466" x2="0.499999" y2="1.01531"><stop offset="0" stop-color="#FD54FF" /><stop offset="1" stop-color="#FFBFFF" /></linearGradient><path fill-rule="evenodd" d="M8,7L12.545000000000002,4.5L8,2L3.4549999999999983,4.5L8,7Z" fill="url(#F5011)" /></g></svg></svg><svg width="16" height="16" viewBox="0,0,16,16" x="36" y="18"><svg ti:v="1" width="16" height="16" viewBox="0,0,16,16" xmlns="http://www.w3.org/2000/svg" xmlns:ti="urn:schemas-jetbrains-com:tisvg"><g><path fill-rule="evenodd" d="M0,0L16,0L16,16L0,16Z" fill="#FFFFFF" opacity="0" /><linearGradient id="F1012" x1="0.499999" y1="4.69501E-06" x2="0.499999" y2="1"><stop offset="0" stop-color="#800080" /><stop offset="1" stop-color="#5B005B" /></linearGradient><path fill-rule="evenodd" d="M2,4.160000000000025L2,10.841000000000008L7.7420000000000044,14L8.2579999999999956,14L14,10.841000000000008L14,4.160000000000025L8.2579999999999956,1L7.7420000000000044,1L2,4.160000000000025Z" fill="url(#F1012)" /><linearGradient id="F2012" x1="0.0278305" y1="0.5" x2="1.01539" y2="0.5"><stop offset="0" stop-color="#FD59FF" /><stop offset="1" stop-color="#FF9CFF" /></linearGradient><path fill-rule="evenodd" d="M3,5.25L3,10.25L8,13L8,8L3,5.25Z" fill="url(#F2012)" /><linearGradient id="F3012" x1="0.0278305" y1="0.5" x2="1.01539" y2="0.5"><stop offset="0" stop-color="#FD33FF" /><stop offset="1" stop-color="#FFA3FF" /></linearGradient><path fill-rule="evenodd" d="M13,5.25L8,8L8,13L13,10.25L13,5.25Z" fill="url(#F3012)" /><path fill-rule="evenodd" d="M12.544899999999998,4.5L7.9998999999999967,7L3.454899999999995,4.5L2.9998999999999967,4.7509999999999764L2.9998999999999967,5.25L7.9998999999999967,8L12.999899999999997,5.25L12.999899999999997,4.7509999999999764L12.544899999999998,4.5Z" fill="#FFFFFF" /><linearGradient id="F5012" x1="0.499999" y1="0.0277466" x2="0.499999" y2="1.01531"><stop offset="0" stop-color="#FD54FF" /><stop offset="1" stop-color="#FFBFFF" /></linearGradient><path fill-rule="evenodd" d="M8,7L12.545000000000002,4.5L8,2L3.4549999999999983,4.5L8,7Z" fill="url(#F5012)" /></g></svg><svg ti:v="1" width="16" height="16" viewBox="0,0,16,16" xmlns="http://www.w3.org/2000/svg" xmlns:ti="urn:schemas-jetbrains-com:tisvg"><g><path fill-rule="evenodd" d="M0,0L16,0L16,16L0,16Z" fill="#FFFFFF" opacity="0" /><linearGradient id="F1112" x1="0.5" y1="0.0162048" x2="0.5" y2="1.00555"><stop offset="0" stop-color="#776004" /><stop offset="1" stop-color="#443400" /></linearGradient><path fill-rule="evenodd" d="M7,16L0,16L0,10L7,10L7,16Z" fill="url(#F1112)" /><linearGradient id="F2112" x1="0" y1="0.500015" x2="1" y2="0.500015"><stop offset="0" stop-color="#D6B672" /><stop offset="0.31901800632476807" stop-color="#FDD89C" /><stop offset="1" stop-color="#C36D2A" /></linearGradient><path fill-rule="evenodd" d="M6,15L1,15L1,11L6,11L6,15Z" fill="url(#F2112)" /><path fill-rule="evenodd" d="M3,14L4,14L4,12L3,12L3,14Z" fill="#000000" /><linearGradient id="F4112" x1="0" y1="0.500015" x2="1" y2="0.500015"><stop offset="0" stop-color="#939597" /><stop offset="1" stop-color="#57595B" /></linearGradient><path fill-rule="evenodd" d="M3,6C1.8950000000000102,6,1,6.89500000000001,1,8L1,10L6,10L6,8C6,6.89500000000001,5.10499999999999,6,4,6L3,6Z" fill="url(#F4112)" /><path fill-rule="evenodd" d="M4,7L3,7L2,8L2,10L3,10L3,8L4,8L4,10L5,10L5,8L4,7Z" fill="#FFFFFF" /></g></svg></svg><svg width="16" height="16" viewBox="0,0,16,16" x="54" y="18"><svg ti:v="1" width="16" height="16" viewBox="0,0,16,16" xmlns="http://www.w3.org/2000/svg" xmlns:ti="urn:schemas-jetbrains-com:tisvg"><g><path fill-rule="evenodd" d="M0,0L16,0L16,16L0,16Z" fill="#FFFFFF" opacity="0" /><linearGradient id="F1013" x1="0.499999" y1="4.69501E-06" x2="0.499999" y2="1"><stop offset="0" stop-color="#800080" /><stop offset="1" stop-color="#5B005B" /></linearGradient><path fill-rule="evenodd" d="M2,4.160000000000025L2,10.841000000000008L7.7420000000000044,14L8.2579999999999956,14L14,10.841000000000008L14,4.160000000000025L8.2579999999999956,1L7.7420000000000044,1L2,4.160000000000025Z" fill="url(#F1013)" /><linearGradient id="F2013" x1="0.0278305" y1="0.5" x2="1.01539" y2="0.5"><stop offset="0" stop-color="#FD59FF" /><stop offset="1" stop-color="#FF9CFF" /></linearGradient><path fill-rule="evenodd" d="M3,5.25L3,10.25L8,13L8,8L3,5.25Z" fill="url(#F2013)" /><linearGradient id="F3013" x1="0.0278305" y1="0.5" x2="1.01539" y2="0.5"><stop offset="0" stop-color="#FD33FF" /><stop offset="1" stop-color="#FFA3FF" /></linearGradient><path fill-rule="evenodd" d="M13,5.25L8,8L8,13L13,10.25L13,5.25Z" fill="url(#F3013)" /><path fill-rule="evenodd" d="M12.544899999999998,4.5L7.9998999999999967,7L3.454899999999995,4.5L2.9998999999999967,4.7509999999999764L2.9998999999999967,5.25L7.9998999999999967,8L12.999899999999997,5.25L12.999899999999997,4.7509999999999764L12.544899999999998,4.5Z" fill="#FFFFFF" /><linearGradient id="F5013" x1="0.499999" y1="0.0277466" x2="0.499999" y2="1.01531"><stop offset="0" stop-color="#FD54FF" /><stop offset="1" stop-color="#FFBFFF" /></linearGradient><path fill-rule="evenodd" d="M8,7L12.545000000000002,4.5L8,2L3.4549999999999983,4.5L8,7Z" fill="url(#F5013)" /></g></svg></svg><svg width="16" height="16" viewBox="0,0,16,16" x="72" y="18"><svg ti:v="1" width="16" height="16" viewBox="0,0,16,16" xmlns="http://www.w3.org/2000/svg" xmlns:ti="urn:schemas-jetbrains-com:tisvg"><g><path fill-rule="evenodd" d="M0,0L16,0L16,16L0,16Z" fill="#FFFFFF" opacity="0" /><linearGradient id="F1014" x1="0.499999" y1="4.69501E-06" x2="0.499999" y2="1"><stop offset="0" stop-color="#800080" /><stop offset="1" stop-color="#5B005B" /></linearGradient><path fill-rule="evenodd" d="M2,4.160000000000025L2,10.841000000000008L7.7420000000000044,14L8.2579999999999956,14L14,10.841000000000008L14,4.160000000000025L8.2579999999999956,1L7.7420000000000044,1L2,4.160000000000025Z" fill="url(#F1014)" /><linearGradient id="F2014" x1="0.0278305" y1="0.5" x2="1.01539" y2="0.5"><stop offset="0" stop-color="#FD59FF" /><stop offset="1" stop-color="#FF9CFF" /></linearGradient><path fill-rule="evenodd" d="M3,5.25L3,10.25L8,13L8,8L3,5.25Z" fill="url(#F2014)" /><linearGradient id="F3014" x1="0.0278305" y1="0.5" x2="1.01539" y2="0.5"><stop offset="0" stop-color="#FD33FF" /><stop offset="1" stop-color="#FFA3FF" /></linearGradient><path fill-rule="evenodd" d="M13,5.25L8,8L8,13L13,10.25L13,5.25Z" fill="url(#F3014)" /><path fill-rule="evenodd" d="M12.544899999999998,4.5L7.9998999999999967,7L3.454899999999995,4.5L2.9998999999999967,4.7509999999999764L2.9998999999999967,5.25L7.9998999999999967,8L12.999899999999997,5.25L12.999899999999997,4.7509999999999764L12.544899999999998,4.5Z" fill="#FFFFFF" /><linearGradient id="F5014" x1="0.499999" y1="0.0277466" x2="0.499999" y2="1.01531"><stop offset="0" stop-color="#FD54FF" /><stop offset="1" stop-color="#FFBFFF" /></linearGradient><path fill-rule="evenodd" d="M8,7L12.545000000000002,4.5L8,2L3.4549999999999983,4.5L8,7Z" fill="url(#F5014)" /></g></svg></svg><svg width="16" height="16" viewBox="0,0,16,16" x="90" y="18"><svg ti:v="1" width="16" height="16" viewBox="0,0,16,16" xmlns="http://www.w3.org/2000/svg" xmlns:ti="urn:schemas-jetbrains-com:tisvg"><g><path fill-rule="evenodd" d="M0,0L16,0L16,16L0,16Z" fill="#FFFFFF" opacity="0" /><linearGradient id="F1015" x1="0.499999" y1="4.69501E-06" x2="0.499999" y2="1"><stop offset="0" stop-color="#800080" /><stop offset="1" stop-color="#5B005B" /></linearGradient><path fill-rule="evenodd" d="M2,4.160000000000025L2,10.841000000000008L7.7420000000000044,14L8.2579999999999956,14L14,10.841000000000008L14,4.160000000000025L8.2579999999999956,1L7.7420000000000044,1L2,4.160000000000025Z" fill="url(#F1015)" /><linearGradient id="F2015" x1="0.0278305" y1="0.5" x2="1.01539" y2="0.5"><stop offset="0" stop-color="#FD59FF" /><stop offset="1" stop-color="#FF9CFF" /></linearGradient><path fill-rule="evenodd" d="M3,5.25L3,10.25L8,13L8,8L3,5.25Z" fill="url(#F2015)" /><linearGradient id="F3015" x1="0.0278305" y1="0.5" x2="1.01539" y2="0.5"><stop offset="0" stop-color="#FD33FF" /><stop offset="1" stop-color="#FFA3FF" /></linearGradient><path fill-rule="evenodd" d="M13,5.25L8,8L8,13L13,10.25L13,5.25Z" fill="url(#F3015)" /><path fill-rule="evenodd" d="M12.544899999999998,4.5L7.9998999999999967,7L3.454899999999995,4.5L2.9998999999999967,4.7509999999999764L2.9998999999999967,5.25L7.9998999999999967,8L12.999899999999997,5.25L12.999899999999997,4.7509999999999764L12.544899999999998,4.5Z" fill="#FFFFFF" /><linearGradient id="F5015" x1="0.499999" y1="0.0277466" x2="0.499999" y2="1.01531"><stop offset="0" stop-color="#FD54FF" /><stop offset="1" stop-color="#FFBFFF" /></linearGradient><path fill-rule="evenodd" d="M8,7L12.545000000000002,4.5L8,2L3.4549999999999983,4.5L8,7Z" fill="url(#F5015)" /></g></svg><svg ti:v="1" width="16" height="16" viewBox="0,0,16,16" xmlns="http://www.w3.org/2000/svg" xmlns:ti="urn:schemas-jetbrains-com:tisvg"><g><path fill-rule="evenodd" d="M0,0L16,0L16,16L0,16Z" fill="#FFFFFF" opacity="0" /><linearGradient id="F1115" x1="0.5" y1="0.0162048" x2="0.5" y2="1.00555"><stop offset="0" stop-color="#776004" /><stop offset="1" stop-color="#443400" /></linearGradient><path fill-rule="evenodd" d="M7,16L0,16L0,10L7,10L7,16Z" fill="url(#F1115)" /><linearGradient id="F2115" x1="0" y1="0.500015" x2="1" y2="0.500015"><stop offset="0" stop-color="#D6B672" /><stop offset="0.31901800632476807" stop-color="#FDD89C" /><stop offset="1" stop-color="#C36D2A" /></linearGradient><path fill-rule="evenodd" d="M6,15L1,15L1,11L6,11L6,15Z" fill="url(#F2115)" /><path fill-rule="evenodd" d="M3,14L4,14L4,12L3,12L3,14Z" fill="#000000" /><linearGradient id="F4115" x1="0" y1="0.500015" x2="1" y2="0.500015"><stop offset="0" stop-color="#939597" /><stop offset="1" stop-color="#57595B" /></linearGradient><path fill-rule="evenodd" d="M3,6C1.8950000000000102,6,1,6.89500000000001,1,8L1,10L6,10L6,8C6,6.89500000000001,5.10499999999999,6,4,6L3,6Z" fill="url(#F4115)" /><path fill-rule="evenodd" d="M4,7L3,7L2,8L2,10L3,10L3,8L4,8L4,10L5,10L5,8L4,7Z" fill="#FFFFFF" /></g></svg></svg><svg width="16" height="16" viewBox="0,0,16,16" x="108" y="18"><svg ti:v="1" width="16" height="16" viewBox="0,0,16,16" xmlns="http://www.w3.org/2000/svg" xmlns:ti="urn:schemas-jetbrains-com:tisvg"><g><path fill-rule="evenodd" d="M0,0L16,0L16,16L0,16Z" fill="#FFFFFF" opacity="0" /><linearGradient id="F1016" x1="0.499999" y1="4.69501E-06" x2="0.499999" y2="1"><stop offset="0" stop-color="#800080" /><stop offset="1" stop-color="#5B005B" /></linearGradient><path fill-rule="evenodd" d="M2,4.160000000000025L2,10.841000000000008L7.7420000000000044,14L8.2579999999999956,14L14,10.841000000000008L14,4.160000000000025L8.2579999999999956,1L7.7420000000000044,1L2,4.160000000000025Z" fill="url(#F1016)" /><linearGradient id="F2016" x1="0.0278305" y1="0.5" x2="1.01539" y2="0.5"><stop offset="0" stop-color="#FD59FF" /><stop offset="1" stop-color="#FF9CFF" /></linearGradient><path fill-rule="evenodd" d="M3,5.25L3,10.25L8,13L8,8L3,5.25Z" fill="url(#F2016)" /><linearGradient id="F3016" x1="0.0278305" y1="0.5" x2="1.01539" y2="0.5"><stop offset="0" stop-color="#FD33FF" /><stop offset="1" stop-color="#FFA3FF" /></linearGradient><path fill-rule="evenodd" d="M13,5.25L8,8L8,13L13,10.25L13,5.25Z" fill="url(#F3016)" /><path fill-rule="evenodd" d="M12.544899999999998,4.5L7.9998999999999967,7L3.454899999999995,4.5L2.9998999999999967,4.7509999999999764L2.9998999999999967,5.25L7.9998999999999967,8L12.999899999999997,5.25L12.999899999999997,4.7509999999999764L12.544899999999998,4.5Z" fill="#FFFFFF" /><linearGradient id="F5016" x1="0.499999" y1="0.0277466" x2="0.499999" y2="1.01531"><stop offset="0" stop-color="#FD54FF" /><stop offset="1" stop-color="#FFBFFF" /></linearGradient><path fill-rule="evenodd" d="M8,7L12.545000000000002,4.5L8,2L3.4549999999999983,4.5L8,7Z" fill="url(#F5016)" /></g></svg><svg ti:v="1" width="16" height="16" viewBox="0,0,16,16" xmlns="http://www.w3.org/2000/svg" xmlns:ti="urn:schemas-jetbrains-com:tisvg"><g><path fill-rule="evenodd" d="M0,0L16,0L16,16L0,16Z" fill="#FFFFFF" opacity="0" /><linearGradient id="F1116" x1="0.5" y1="1.01725E-05" x2="0.5" y2="1.00001"><stop offset="0" stop-color="#856000" /><stop offset="1" stop-color="#562800" /></linearGradient><path fill-rule="evenodd" d="M8,16L0,16L0,10L8,10L8,16Z" fill="url(#F1116)" /><linearGradient id="F2116" x1="0.5" y1="1.52588E-05" x2="0.5" y2="1.00002"><stop offset="0" stop-color="#FFEF8C" /><stop offset="1" stop-color="#EFDB72" /></linearGradient><path fill-rule="evenodd" d="M7,11L1,11L1,15L7,15L7,11Z" fill="url(#F2116)" /><linearGradient id="F3116" x1="0.5" y1="2.03451E-05" x2="0.5" y2="1.00002"><stop offset="0" stop-color="#856000" /><stop offset="1" stop-color="#562800" /></linearGradient><path fill-rule="evenodd" d="M1,11L4,13L7,11L7,12L4,14L1,12L1,11Z" fill="url(#F3116)" /></g></svg></svg></svg>